<svg width="19" height="18" viewBox="0 0 19 18" fill="none" xmlns="http://www.w3.org/2000/svg">
<g id="formkit:email" clip-path="url(#clip0_170_332)">
<path id="Vector" d="M17.2188 16.0868H1.78131C0.795686 16.0868 6.10352e-05 15.2732 6.10352e-05 14.2654V3.33678C6.10352e-05 2.32892 0.795686 1.51535 1.78131 1.51535H17.2188C18.2044 1.51535 19.0001 2.32892 19.0001 3.33678V14.2654C19.0001 15.2732 18.2044 16.0868 17.2188 16.0868ZM1.78131 2.72964C1.44881 2.72964 1.18756 2.99678 1.18756 3.33678V14.2654C1.18756 14.6054 1.44881 14.8725 1.78131 14.8725H17.2188C17.5513 14.8725 17.8126 14.6054 17.8126 14.2654V3.33678C17.8126 2.99678 17.5513 2.72964 17.2188 2.72964H1.78131Z" fill="#4A36EC"/>
<path id="Vector_2" d="M9.50006 11.1811C8.66881 11.1811 7.90881 10.8411 7.33881 10.2218L1.10444 3.44606C0.878812 3.20321 0.890686 2.81464 1.12819 2.58392C1.36569 2.35321 1.74569 2.36535 1.97131 2.60821L8.20569 9.38392C8.88256 10.1246 10.1176 10.1246 10.7944 9.38392L17.0288 2.62035C17.2544 2.37749 17.6344 2.36535 17.8719 2.59606C18.1094 2.82678 18.1213 3.21535 17.8957 3.45821L11.6613 10.2339C11.0913 10.8532 10.3313 11.1932 9.50006 11.1932V11.1811Z" fill="#4A36EC"/>
</g>
<defs>
<clipPath id="clip0_170_332">
<rect width="19" height="17" fill="white" transform="translate(6.10352e-05 0.301056)"/>
</clipPath>
</defs>
</svg>
