<svg width="174" height="26" viewBox="0 0 174 26" fill="none" xmlns="http://www.w3.org/2000/svg">
<path d="M9.13928 14.8892C8.23141 14.7681 0.302625 12.5287 0 8.89719V14.4655C1.2105 17.3102 5.56831 19.247 9.13928 20.0943V14.8892Z" fill="white"/>
<path d="M21.0627 0C-0.968409 1.27103 -1.57365 7.44458 1.33155 9.98664C14.9497 1.39208 39.7044 5.99198 43.0938 10.1077C45.3938 9.38138 48.7227 0.605251 21.0627 0Z" fill="white"/>
<path d="M9.74451 15.3734L9.74451 16.7654C10.4103 17.2496 10.3498 18.097 9.74451 18.5207L9.74451 19.6706C10.4379 19.5369 10.7681 19.3086 11.2576 18.6417L13.3155 19.247C13.6181 20.0943 14.1023 20.6391 15.1918 20.9417C15.0102 20.518 14.9497 20.1549 15.0102 19.6706C14.4049 19.247 14.4049 18.3391 15.0102 17.9154C15.0102 17.4312 15.0707 17.1286 15.2523 16.5839C14.3075 16.9945 13.8661 17.314 13.4365 18.0365L11.4392 17.4312C11.2318 16.4364 10.8695 15.9819 9.74451 15.3734Z" fill="white"/>
<path d="M35.4072 14.8892C36.315 14.7681 44.2438 12.5287 44.5464 8.89719V14.4655C43.3359 17.3102 38.9781 19.247 35.4072 20.0943V14.8892Z" fill="white"/>
<path d="M34.8019 15.3734L34.8019 16.7654C34.1362 17.2496 34.1967 18.097 34.8019 18.5207L34.8019 19.6706C34.1085 19.5369 33.7784 19.3086 33.2888 18.6417L31.231 19.247C30.9283 20.0943 30.4441 20.6391 29.3547 20.9417C29.5363 20.518 29.5968 20.1549 29.5363 19.6706C30.1415 19.247 30.1415 18.3391 29.5363 17.9154C29.5363 17.4312 29.4757 17.1286 29.2942 16.5839C30.2389 16.9945 30.6804 17.314 31.1099 18.0365L33.1072 17.4312C33.3147 16.4364 33.677 15.9819 34.8019 15.3734Z" fill="white"/>
<path fill-rule="evenodd" clip-rule="evenodd" d="M22.2732 25.6021C26.017 25.6021 29.052 22.5671 29.052 18.8233C29.052 15.0795 26.017 12.0445 22.2732 12.0445C18.5294 12.0445 15.4944 15.0795 15.4944 18.8233C15.4944 22.5671 18.5294 25.6021 22.2732 25.6021ZM18.4139 18.7839C18.2572 16.7992 19.9977 14.905 22.2732 14.905C22.5494 14.905 22.7732 14.6811 22.7732 14.405C22.7732 14.1288 22.5494 13.905 22.2732 13.905C19.4647 13.905 17.2105 16.2475 17.417 18.8627C17.4387 19.1379 17.6795 19.3435 17.9548 19.3218C18.2301 19.3 18.4356 19.0592 18.4139 18.7839Z" fill="white"/>
<path d="M62.9372 19.3011C63.1639 18.3544 63.4905 17.2944 63.9172 16.1211C64.3439 14.9477 64.8172 13.7277 65.3372 12.4611H64.2372C64.1305 12.4611 64.0772 12.4211 64.0772 12.3411C64.0772 12.2611 64.1372 12.1544 64.2572 12.0211C64.3772 11.8744 64.5172 11.7477 64.6772 11.6411C64.8372 11.5344 64.9705 11.4811 65.0772 11.4811H65.7572C66.1839 10.4544 66.6105 9.47439 67.0372 8.54105C67.4639 7.60772 67.9105 6.79439 68.3772 6.10106C67.6705 6.19439 66.9439 6.34106 66.1972 6.54106C65.4505 6.72772 64.7839 6.96772 64.1972 7.26105C63.6105 7.54106 63.1972 7.88106 62.9572 8.28106C62.9439 8.32106 62.9172 8.34106 62.8772 8.34106C62.8505 8.34106 62.8239 8.31439 62.7972 8.26105C62.7839 8.20772 62.7839 8.14772 62.7972 8.08105C62.9305 7.73439 63.0972 7.40106 63.2972 7.08106C63.4972 6.76106 63.6905 6.50772 63.8772 6.32105C64.1705 6.01439 64.5705 5.79439 65.0772 5.66106C65.5839 5.52772 66.1039 5.44106 66.6372 5.40105C67.1839 5.36106 67.6505 5.34106 68.0372 5.34106H71.9972C72.4639 5.34106 72.8772 5.32772 73.2372 5.30105C73.6105 5.26106 73.9239 5.24106 74.1772 5.24106C74.5905 5.24106 74.8305 5.34106 74.8972 5.54106C74.9105 5.59439 74.9172 5.64772 74.9172 5.70106C74.9305 5.74106 74.9372 5.79439 74.9372 5.86105C74.9372 6.12772 74.8772 6.43439 74.7572 6.78105C74.6372 7.11439 74.5039 7.44106 74.3572 7.76106C74.2239 8.06772 74.1172 8.32106 74.0372 8.52106C74.0239 8.58772 73.9839 8.63439 73.9172 8.66106C73.8639 8.68772 73.8105 8.70106 73.7572 8.70106C73.6905 8.70106 73.6305 8.68772 73.5772 8.66106C73.5372 8.63439 73.5239 8.54772 73.5372 8.40106C73.5639 8.24106 73.5972 8.06106 73.6372 7.86106C73.6772 7.66106 73.6972 7.48772 73.6972 7.34105C73.6972 6.91439 73.5039 6.58772 73.1172 6.36106C72.7305 6.12106 72.2839 6.00106 71.7772 6.00106C71.4039 6.00106 71.0972 6.03439 70.8572 6.10106C70.6305 6.15439 70.4372 6.29439 70.2772 6.52105C69.8639 7.09439 69.4439 7.83439 69.0172 8.74106C68.5905 9.64772 68.1839 10.5611 67.7972 11.4811H72.2372C72.2772 11.4811 72.2505 11.5611 72.1572 11.7211C72.0772 11.8811 71.9705 12.0477 71.8372 12.2211C71.7172 12.3811 71.6105 12.4611 71.5172 12.4611H67.3772C67.2305 12.8211 67.0439 13.2877 66.8172 13.8611C66.6039 14.4211 66.3905 15.0211 66.1772 15.6611C65.9639 16.3011 65.7839 16.9077 65.6372 17.4811C65.5039 18.0411 65.4372 18.5011 65.4372 18.8611C65.4372 19.0611 65.4639 19.2077 65.5172 19.3011H62.9372ZM76.8572 19.4211C76.4439 19.4211 76.1572 19.2611 75.9972 18.9411C75.8505 18.6211 75.7772 18.2277 75.7772 17.7611C75.7772 17.3344 75.8172 16.9144 75.8972 16.5011C75.9372 16.3144 75.9772 16.1277 76.0172 15.9411C76.0705 15.7411 76.1305 15.5344 76.1972 15.3211C75.9705 15.7344 75.7305 16.1344 75.4772 16.5211C75.2372 16.9077 74.9905 17.2477 74.7372 17.5411C74.3105 18.0611 73.8572 18.4944 73.3772 18.8411C72.9105 19.1877 72.4439 19.3611 71.9772 19.3611C71.6039 19.3611 71.2839 19.2277 71.0172 18.9611C70.7639 18.6811 70.6372 18.2011 70.6372 17.5211C70.6372 16.8277 70.7572 16.1144 70.9972 15.3811C71.2372 14.6477 71.5705 13.9677 71.9972 13.3411C72.4372 12.7011 72.9505 12.1877 73.5372 11.8011C74.1372 11.4144 74.7905 11.2211 75.4972 11.2211C75.7239 11.2211 75.9705 11.2544 76.2372 11.3211C76.5039 11.3877 76.7505 11.5144 76.9772 11.7011C77.2039 11.8744 77.3572 12.1211 77.4372 12.4411C77.4505 12.4144 77.4639 12.3944 77.4772 12.3811C77.5039 12.3677 77.5239 12.3544 77.5372 12.3411C77.7239 12.0477 77.9372 11.8011 78.1772 11.6011C78.4172 11.4011 78.6839 11.3011 78.9772 11.3011C79.1239 11.3011 79.3305 11.3077 79.5972 11.3211C79.8639 11.3344 80.0572 11.3344 80.1772 11.3211C80.1105 11.3744 80.0172 11.4811 79.8972 11.6411C79.7905 11.8011 79.6905 11.9677 79.5972 12.1411C79.5039 12.3011 79.4305 12.4277 79.3772 12.5211C79.0172 13.2144 78.6905 13.9011 78.3972 14.5811C78.1039 15.2611 77.8772 15.9144 77.7172 16.5411C77.6772 16.6744 77.6505 16.8011 77.6372 16.9211C77.6239 17.0277 77.6172 17.1344 77.6172 17.2411C77.6172 17.5877 77.7305 17.7611 77.9572 17.7611C78.1705 17.7611 78.4372 17.6277 78.7572 17.3611C79.2239 16.9877 79.6305 16.5211 79.9772 15.9611C80.3372 15.4011 80.6505 14.8611 80.9172 14.3411C80.9705 14.2477 81.0172 14.2011 81.0572 14.2011C81.1372 14.2011 81.1772 14.3144 81.1772 14.5411C81.1772 14.6477 81.1572 14.7677 81.1172 14.9011C81.0905 15.0344 81.0439 15.1611 80.9772 15.2811C80.7905 15.6011 80.5439 15.9944 80.2372 16.4611C79.9439 16.9277 79.6105 17.3877 79.2372 17.8411C78.8639 18.2811 78.4705 18.6544 78.0572 18.9611C77.6572 19.2677 77.2572 19.4211 76.8572 19.4211ZM72.8772 17.6811C72.9172 17.6944 72.9772 17.7011 73.0572 17.7011C73.3105 17.7011 73.5839 17.5944 73.8772 17.3811C74.1705 17.1677 74.4639 16.8944 74.7572 16.5611C75.0505 16.2144 75.3105 15.8677 75.5372 15.5211C76.1239 14.5877 76.5572 13.8877 76.8372 13.4211C77.1172 12.9544 77.2772 12.6877 77.3172 12.6211C77.2505 12.3944 77.1305 12.2277 76.9572 12.1211C76.7972 12.0144 76.6039 11.9611 76.3772 11.9611C76.0839 11.9611 75.7705 12.0411 75.4372 12.2011C75.1172 12.3611 74.8439 12.5544 74.6172 12.7811C74.2705 13.1277 73.9372 13.5744 73.6172 14.1211C73.3105 14.6677 73.0572 15.2077 72.8572 15.7411C72.6705 16.2744 72.5772 16.7211 72.5772 17.0811C72.5772 17.4144 72.6772 17.6144 72.8772 17.6811ZM85.5303 19.4211C85.077 19.4211 84.7637 19.2877 84.5903 19.0211C84.4303 18.7411 84.3503 18.4211 84.3503 18.0611C84.3503 17.6211 84.437 17.0944 84.6103 16.4811C84.7837 15.8544 84.9837 15.2277 85.2103 14.6011C85.4503 13.9611 85.6637 13.3944 85.8503 12.9011C85.9037 12.7811 85.9303 12.6544 85.9303 12.5211C85.9303 12.3744 85.8837 12.2677 85.7903 12.2011C85.697 12.1344 85.577 12.1011 85.4303 12.1011C85.217 12.1011 84.977 12.1677 84.7103 12.3011C84.297 12.5144 83.9037 12.8544 83.5303 13.3211C83.157 13.7877 82.857 14.2744 82.6303 14.7811C82.377 15.3544 82.1503 15.9277 81.9503 16.5011C81.7503 17.0744 81.5903 17.5411 81.4703 17.9011C81.3903 18.1277 81.317 18.3611 81.2503 18.6011C81.1837 18.8411 81.117 19.0744 81.0503 19.3011H79.1103C79.1103 19.3011 79.157 19.1344 79.2503 18.8011C79.3303 18.4677 79.437 18.1344 79.5703 17.8011C79.797 17.2144 80.0237 16.6277 80.2503 16.0411C80.4903 15.4544 80.697 14.9344 80.8703 14.4811C80.9237 14.3477 81.0037 14.1011 81.1103 13.7411C81.2303 13.3677 81.337 12.9811 81.4303 12.5811C81.537 12.1811 81.5903 11.8544 81.5903 11.6011C81.5903 11.4544 81.5703 11.3544 81.5303 11.3011C81.6503 11.3011 81.7837 11.3011 81.9303 11.3011C82.0903 11.2877 82.237 11.2811 82.3703 11.2811C82.557 11.2811 82.7303 11.2877 82.8903 11.3011C83.0637 11.3144 83.177 11.3477 83.2303 11.4011C83.3903 11.5211 83.4703 11.6944 83.4703 11.9211C83.4703 12.0811 83.437 12.2411 83.3703 12.4011C83.317 12.5611 83.277 12.6944 83.2503 12.8011C83.437 12.6277 83.6303 12.4611 83.8303 12.3011C84.0303 12.1411 84.337 11.9344 84.7503 11.6811C84.9903 11.5344 85.2903 11.4144 85.6503 11.3211C86.0103 11.2277 86.337 11.1811 86.6303 11.1811C87.3903 11.1811 87.7703 11.5344 87.7703 12.2411C87.7703 12.3611 87.757 12.4944 87.7303 12.6411C87.717 12.7877 87.677 12.9477 87.6103 13.1211C87.5437 13.3344 87.437 13.6277 87.2903 14.0011C87.1437 14.3744 86.9903 14.7744 86.8303 15.2011C86.6837 15.6144 86.557 16.0077 86.4503 16.3811C86.3437 16.7544 86.2903 17.0544 86.2903 17.2811C86.2903 17.6011 86.4103 17.7611 86.6503 17.7611C86.8637 17.7611 87.1303 17.6277 87.4503 17.3611C87.757 17.1077 88.0237 16.8344 88.2503 16.5411C88.5303 16.1944 88.7837 15.8277 89.0103 15.4411C89.2503 15.0411 89.457 14.6744 89.6303 14.3411C89.697 14.2344 89.7437 14.1811 89.7703 14.1811C89.8503 14.1811 89.8903 14.2944 89.8903 14.5211C89.8903 14.6277 89.8703 14.7544 89.8303 14.9011C89.8037 15.0344 89.757 15.1611 89.6903 15.2811C89.5037 15.6011 89.2837 15.9544 89.0303 16.3411C88.777 16.7277 88.517 17.1011 88.2503 17.4611C88.0637 17.7144 87.817 17.9944 87.5103 18.3011C87.2037 18.6077 86.877 18.8744 86.5303 19.1011C86.1837 19.3144 85.8503 19.4211 85.5303 19.4211ZM90.5413 19.4211C90.1546 19.4211 89.8613 19.2677 89.6613 18.9611C89.5679 18.8144 89.5013 18.6411 89.4613 18.4411C89.4213 18.2411 89.4013 18.0344 89.4013 17.8211C89.4013 17.6077 89.4146 17.3944 89.4413 17.1811C89.4679 16.9544 89.5013 16.7344 89.5413 16.5211C89.6079 16.1744 89.6813 15.8611 89.7613 15.5811C89.8546 15.2877 89.9479 15.0077 90.0413 14.7411V14.7211C89.9346 14.9211 89.8013 15.1411 89.6413 15.3811C89.4813 15.6077 89.3679 15.7744 89.3013 15.8811C89.2079 16.0277 89.1346 16.1011 89.0813 16.1011C89.0279 16.1011 89.0013 16.0411 89.0013 15.9211C89.0013 15.6544 89.0813 15.3611 89.2413 15.0411C89.3479 14.8277 89.4946 14.5544 89.6813 14.2211C89.8679 13.8744 90.0613 13.5011 90.2613 13.1011C90.4613 12.7011 90.6346 12.3144 90.7813 11.9411H89.4413C89.3746 11.9411 89.3613 11.8877 89.4013 11.7811C89.4413 11.6744 89.5013 11.5744 89.5813 11.4811C89.6613 11.3744 89.7213 11.3211 89.7613 11.3211H91.2813C91.4279 10.9744 91.5946 10.6011 91.7813 10.2011C91.9813 9.80106 92.2013 9.42772 92.4413 9.08106C92.6946 8.72106 92.9679 8.42772 93.2613 8.20106C93.5546 7.97439 93.8679 7.86106 94.2013 7.86106C94.3479 7.86106 94.5279 7.86106 94.7413 7.86106C94.9679 7.86106 95.1079 7.85439 95.1613 7.84106C94.8813 8.02772 94.5546 8.40106 94.1813 8.96106C93.8079 9.50772 93.4013 10.2944 92.9613 11.3211H94.9813C95.0213 11.3211 95.0079 11.3744 94.9413 11.4811C94.8746 11.5744 94.7879 11.6744 94.6813 11.7811C94.5879 11.8877 94.4946 11.9411 94.4013 11.9411H92.6813C92.5079 12.3811 92.3146 12.8611 92.1013 13.3811C91.9013 13.9011 91.7146 14.4144 91.5413 14.9211C91.3813 15.4144 91.2613 15.8677 91.1813 16.2811C91.1279 16.5344 91.1013 16.7677 91.1013 16.9811C91.1013 17.4877 91.2613 17.7411 91.5813 17.7411C91.7946 17.7411 92.0479 17.6344 92.3413 17.4211C92.6346 17.2077 92.9279 16.9144 93.2213 16.5411C93.4879 16.1944 93.7413 15.8211 93.9813 15.4211C94.2346 15.0211 94.4479 14.6544 94.6213 14.3211C94.6746 14.2277 94.7213 14.1811 94.7613 14.1811C94.8413 14.1811 94.8813 14.2877 94.8813 14.5011C94.8813 14.6077 94.8613 14.7344 94.8213 14.8811C94.7946 15.0144 94.7413 15.1477 94.6613 15.2811C94.4746 15.6011 94.2546 15.9544 94.0013 16.3411C93.7479 16.7144 93.4879 17.0877 93.2213 17.4611C93.0346 17.7011 92.7879 17.9744 92.4813 18.2811C92.1879 18.5877 91.8679 18.8544 91.5213 19.0811C91.1879 19.3077 90.8613 19.4211 90.5413 19.4211ZM100.002 19.4211C99.5884 19.4211 99.3017 19.2611 99.1417 18.9411C98.9951 18.6211 98.9217 18.2277 98.9217 17.7611C98.9217 17.3344 98.9617 16.9144 99.0417 16.5011C99.0817 16.3144 99.1217 16.1277 99.1617 15.9411C99.2151 15.7411 99.2751 15.5344 99.3417 15.3211C99.1151 15.7344 98.8751 16.1344 98.6217 16.5211C98.3817 16.9077 98.1351 17.2477 97.8817 17.5411C97.4551 18.0611 97.0017 18.4944 96.5217 18.8411C96.0551 19.1877 95.5884 19.3611 95.1217 19.3611C94.7484 19.3611 94.4284 19.2277 94.1617 18.9611C93.9084 18.6811 93.7817 18.2011 93.7817 17.5211C93.7817 16.8277 93.9017 16.1144 94.1417 15.3811C94.3817 14.6477 94.7151 13.9677 95.1417 13.3411C95.5817 12.7011 96.0951 12.1877 96.6817 11.8011C97.2817 11.4144 97.9351 11.2211 98.6417 11.2211C98.8684 11.2211 99.1151 11.2544 99.3817 11.3211C99.6484 11.3877 99.8951 11.5144 100.122 11.7011C100.348 11.8744 100.502 12.1211 100.582 12.4411C100.595 12.4144 100.608 12.3944 100.622 12.3811C100.648 12.3677 100.668 12.3544 100.682 12.3411C100.868 12.0477 101.082 11.8011 101.322 11.6011C101.562 11.4011 101.828 11.3011 102.122 11.3011C102.268 11.3011 102.475 11.3077 102.742 11.3211C103.008 11.3344 103.202 11.3344 103.322 11.3211C103.255 11.3744 103.162 11.4811 103.042 11.6411C102.935 11.8011 102.835 11.9677 102.742 12.1411C102.648 12.3011 102.575 12.4277 102.522 12.5211C102.162 13.2144 101.835 13.9011 101.542 14.5811C101.248 15.2611 101.022 15.9144 100.862 16.5411C100.822 16.6744 100.795 16.8011 100.782 16.9211C100.768 17.0277 100.762 17.1344 100.762 17.2411C100.762 17.5877 100.875 17.7611 101.102 17.7611C101.315 17.7611 101.582 17.6277 101.902 17.3611C102.368 16.9877 102.775 16.5211 103.122 15.9611C103.482 15.4011 103.795 14.8611 104.062 14.3411C104.115 14.2477 104.162 14.2011 104.202 14.2011C104.282 14.2011 104.322 14.3144 104.322 14.5411C104.322 14.6477 104.302 14.7677 104.262 14.9011C104.235 15.0344 104.188 15.1611 104.122 15.2811C103.935 15.6011 103.688 15.9944 103.382 16.4611C103.088 16.9277 102.755 17.3877 102.382 17.8411C102.008 18.2811 101.615 18.6544 101.202 18.9611C100.802 19.2677 100.402 19.4211 100.002 19.4211ZM96.0217 17.6811C96.0617 17.6944 96.1217 17.7011 96.2017 17.7011C96.4551 17.7011 96.7284 17.5944 97.0217 17.3811C97.3151 17.1677 97.6084 16.8944 97.9017 16.5611C98.1951 16.2144 98.4551 15.8677 98.6817 15.5211C99.2684 14.5877 99.7017 13.8877 99.9817 13.4211C100.262 12.9544 100.422 12.6877 100.462 12.6211C100.395 12.3944 100.275 12.2277 100.102 12.1211C99.9417 12.0144 99.7484 11.9611 99.5217 11.9611C99.2284 11.9611 98.9151 12.0411 98.5817 12.2011C98.2617 12.3611 97.9884 12.5544 97.7617 12.7811C97.4151 13.1277 97.0817 13.5744 96.7617 14.1211C96.4551 14.6677 96.2017 15.2077 96.0017 15.7411C95.8151 16.2744 95.7217 16.7211 95.7217 17.0811C95.7217 17.4144 95.8217 17.6144 96.0217 17.6811ZM105.815 19.7011C105.362 19.7011 104.935 19.6411 104.535 19.5211C104.135 19.4011 103.808 19.2144 103.555 18.9611C103.302 18.7077 103.175 18.3877 103.175 18.0011C103.175 17.7077 103.262 17.4211 103.435 17.1411C103.622 16.8611 103.882 16.7211 104.215 16.7211C104.362 16.7211 104.495 16.7544 104.615 16.8211C104.735 16.8877 104.815 16.9744 104.855 17.0811C104.842 17.0944 104.808 17.1411 104.755 17.2211C104.702 17.2877 104.668 17.3344 104.655 17.3611C104.535 17.6011 104.475 17.8211 104.475 18.0211C104.475 18.3011 104.575 18.5277 104.775 18.7011C104.988 18.8744 105.262 18.9611 105.595 18.9611C106.035 18.9477 106.415 18.7944 106.735 18.5011C107.068 18.1944 107.235 17.8344 107.235 17.4211C107.235 17.1811 107.182 16.9544 107.075 16.7411C106.902 16.3811 106.668 16.0744 106.375 15.8211C106.095 15.5544 105.822 15.2877 105.555 15.0211C105.302 14.7544 105.115 14.4344 104.995 14.0611C104.942 13.8877 104.915 13.6744 104.915 13.4211C104.915 13.1677 104.948 12.9211 105.015 12.6811C105.082 12.4277 105.182 12.2144 105.315 12.0411C105.502 11.7877 105.782 11.5544 106.155 11.3411C106.622 11.0877 107.168 10.9611 107.795 10.9611C108.208 10.9611 108.575 11.0144 108.895 11.1211C109.135 11.2011 109.342 11.3344 109.515 11.5211C109.702 11.6944 109.795 11.9277 109.795 12.2211C109.795 12.5544 109.688 12.8744 109.475 13.1811C109.275 13.4744 108.982 13.6544 108.595 13.7211C108.355 13.7477 108.142 13.7077 107.955 13.6011C107.768 13.4811 107.702 13.2611 107.755 12.9411C108.115 12.8611 108.375 12.7144 108.535 12.5011C108.615 12.3811 108.655 12.2611 108.655 12.1411C108.655 11.9144 108.562 11.7611 108.375 11.6811C108.202 11.5877 108.035 11.5411 107.875 11.5411C107.675 11.5411 107.482 11.5677 107.295 11.6211C107.122 11.6611 106.962 11.7344 106.815 11.8411C106.522 12.0944 106.375 12.3877 106.375 12.7211C106.375 12.7744 106.382 12.8344 106.395 12.9011C106.422 12.9677 106.442 13.0344 106.455 13.1011C106.522 13.2744 106.622 13.4344 106.755 13.5811C106.888 13.7277 107.022 13.8544 107.155 13.9611C107.488 14.2011 107.828 14.4611 108.175 14.7411C108.535 15.0211 108.802 15.3611 108.975 15.7611C109.108 16.0411 109.175 16.3277 109.175 16.6211C109.175 17.0211 109.075 17.3877 108.875 17.7211C108.675 18.0411 108.448 18.2944 108.195 18.4811C108.635 18.2944 109.062 17.9677 109.475 17.5011C109.902 17.0211 110.268 16.5477 110.575 16.0811C110.775 15.7744 110.955 15.4877 111.115 15.2211C111.288 14.9411 111.462 14.6344 111.635 14.3011C111.688 14.2077 111.735 14.1611 111.775 14.1611C111.855 14.1611 111.895 14.2744 111.895 14.5011C111.895 14.5944 111.875 14.7077 111.835 14.8411C111.808 14.9744 111.762 15.1077 111.695 15.2411C111.455 15.6411 111.228 16.0144 111.015 16.3611C110.802 16.6944 110.542 17.0611 110.235 17.4611C109.622 18.2744 108.968 18.8544 108.275 19.2011C107.582 19.5344 106.762 19.7011 105.815 19.7011ZM111.573 23.3211C111.24 23.3211 110.887 23.2677 110.513 23.1611C110.153 23.0677 109.853 22.9011 109.613 22.6611C109.36 22.4211 109.233 22.1011 109.233 21.7011C109.233 21.4211 109.32 21.1611 109.493 20.9211C109.667 20.6811 109.907 20.5611 110.213 20.5611C110.4 20.5611 110.573 20.6077 110.733 20.7011C110.893 20.8077 111 20.9344 111.053 21.0811C111.027 21.0944 110.987 21.1344 110.933 21.2011C110.88 21.2677 110.847 21.3144 110.833 21.3411C110.74 21.5277 110.693 21.7211 110.693 21.9211C110.693 22.1744 110.78 22.3744 110.953 22.5211C111.14 22.6811 111.373 22.7611 111.653 22.7611C112.013 22.7611 112.387 22.6277 112.773 22.3611C113.2 22.0544 113.533 21.6544 113.773 21.1611C114.027 20.6811 114.227 20.2477 114.373 19.8611L115.513 16.8211C115.273 17.1144 115.02 17.4144 114.753 17.7211C114.5 18.0144 114.34 18.1944 114.273 18.2611C113.767 18.7677 113.313 19.0877 112.913 19.2211C112.513 19.3544 112.16 19.4211 111.853 19.4211C111.533 19.4211 111.26 19.2811 111.033 19.0011C110.82 18.7211 110.713 18.3144 110.713 17.7811C110.713 17.5144 110.753 17.1744 110.833 16.7611C110.913 16.3477 111.027 15.9077 111.173 15.4411C111.32 14.9611 111.487 14.4944 111.673 14.0411C111.873 13.5744 112.087 13.1611 112.313 12.8011C112.66 12.2544 113.047 11.9011 113.473 11.7411C113.9 11.5811 114.44 11.5011 115.093 11.5011C115.147 11.5011 115.173 11.5277 115.173 11.5811C115.173 11.6344 115.133 11.7011 115.053 11.7811C114.867 11.9411 114.64 12.2211 114.373 12.6211C114.107 13.0211 113.847 13.4611 113.593 13.9411C113.353 14.4211 113.153 14.8811 112.993 15.3211C112.887 15.6277 112.78 15.9877 112.673 16.4011C112.58 16.8144 112.533 17.1744 112.533 17.4811C112.533 17.6944 112.56 17.8677 112.613 18.0011C112.68 18.1211 112.78 18.1811 112.913 18.1811C113.127 18.1811 113.42 18.0211 113.793 17.7011C114.353 17.2344 114.86 16.6611 115.313 15.9811C115.767 15.3011 116.153 14.5944 116.473 13.8611C116.66 13.4344 116.813 13.0744 116.933 12.7811C117.053 12.4744 117.187 12.2277 117.333 12.0411C117.48 11.8544 117.687 11.7211 117.953 11.6411C118.22 11.5477 118.58 11.5011 119.033 11.5011H119.853C119.6 11.6611 119.347 11.9611 119.093 12.4011C118.84 12.8277 118.6 13.3344 118.373 13.9211C118.2 14.3477 118.02 14.8144 117.833 15.3211C117.66 15.8277 117.48 16.3411 117.293 16.8611C117.133 17.3411 116.96 17.8677 116.773 18.4411C116.587 19.0011 116.373 19.5477 116.133 20.0811C115.893 20.6277 115.613 21.1011 115.293 21.5011C114.84 22.0611 114.287 22.5011 113.633 22.8211C112.98 23.1544 112.293 23.3211 111.573 23.3211ZM125.486 19.3011C125.646 18.6344 125.859 17.8944 126.126 17.0811C126.406 16.2544 126.719 15.3944 127.066 14.5011C127.426 13.6077 127.792 12.7211 128.166 11.8411C128.539 10.9611 128.899 10.1211 129.246 9.32106C129.592 8.50772 129.992 7.68772 130.446 6.86106C130.539 6.70106 130.619 6.55439 130.686 6.42105C130.766 6.28772 130.852 6.17439 130.946 6.08106C130.426 6.09439 129.866 6.16106 129.266 6.28106C128.679 6.38772 128.112 6.54106 127.566 6.74106C127.032 6.94106 126.572 7.17439 126.186 7.44105C125.812 7.70772 125.572 8.00106 125.466 8.32106C125.452 8.36106 125.426 8.38106 125.386 8.38106C125.266 8.38106 125.206 8.28772 125.206 8.10106C125.206 8.06106 125.219 8.00106 125.246 7.92106C125.366 7.57439 125.512 7.26772 125.686 7.00106C125.872 6.73439 126.059 6.50772 126.246 6.32105C126.686 5.86772 127.179 5.59439 127.726 5.50105C128.272 5.39439 128.852 5.34106 129.466 5.34106H133.986C133.666 5.58106 133.326 5.97439 132.966 6.52105C132.606 7.05439 132.252 7.65439 131.906 8.32106C131.559 8.98772 131.232 9.64106 130.926 10.2811C130.632 10.9211 130.386 11.4611 130.186 11.9011C130.092 12.1144 129.959 12.4411 129.786 12.8811C129.612 13.3077 129.419 13.7944 129.206 14.3411C129.006 14.8877 128.812 15.4544 128.626 16.0411C128.439 16.6144 128.286 17.1477 128.166 17.6411C128.046 18.1344 127.986 18.5411 127.986 18.8611C127.986 18.9544 127.992 19.0411 128.006 19.1211C128.032 19.1877 128.052 19.2477 128.066 19.3011H125.486ZM133.471 19.7011C133.018 19.7011 132.591 19.6411 132.191 19.5211C131.791 19.4011 131.464 19.2144 131.211 18.9611C130.958 18.7077 130.831 18.3877 130.831 18.0011C130.831 17.7077 130.918 17.4211 131.091 17.1411C131.278 16.8611 131.538 16.7211 131.871 16.7211C132.018 16.7211 132.151 16.7544 132.271 16.8211C132.391 16.8877 132.471 16.9744 132.511 17.0811C132.498 17.0944 132.464 17.1411 132.411 17.2211C132.358 17.2877 132.324 17.3344 132.311 17.3611C132.191 17.6011 132.131 17.8211 132.131 18.0211C132.131 18.3011 132.231 18.5277 132.431 18.7011C132.644 18.8744 132.918 18.9611 133.251 18.9611C133.691 18.9477 134.071 18.7944 134.391 18.5011C134.724 18.1944 134.891 17.8344 134.891 17.4211C134.891 17.1811 134.838 16.9544 134.731 16.7411C134.558 16.3811 134.324 16.0744 134.031 15.8211C133.751 15.5544 133.478 15.2877 133.211 15.0211C132.958 14.7544 132.771 14.4344 132.651 14.0611C132.598 13.8877 132.571 13.6744 132.571 13.4211C132.571 13.1677 132.604 12.9211 132.671 12.6811C132.738 12.4277 132.838 12.2144 132.971 12.0411C133.158 11.7877 133.438 11.5544 133.811 11.3411C134.278 11.0877 134.824 10.9611 135.451 10.9611C135.864 10.9611 136.231 11.0144 136.551 11.1211C136.791 11.2011 136.998 11.3344 137.171 11.5211C137.358 11.6944 137.451 11.9277 137.451 12.2211C137.451 12.5544 137.344 12.8744 137.131 13.1811C136.931 13.4744 136.638 13.6544 136.251 13.7211C136.011 13.7477 135.798 13.7077 135.611 13.6011C135.424 13.4811 135.358 13.2611 135.411 12.9411C135.771 12.8611 136.031 12.7144 136.191 12.5011C136.271 12.3811 136.311 12.2611 136.311 12.1411C136.311 11.9144 136.218 11.7611 136.031 11.6811C135.858 11.5877 135.691 11.5411 135.531 11.5411C135.331 11.5411 135.138 11.5677 134.951 11.6211C134.778 11.6611 134.618 11.7344 134.471 11.8411C134.178 12.0944 134.031 12.3877 134.031 12.7211C134.031 12.7744 134.038 12.8344 134.051 12.9011C134.078 12.9677 134.098 13.0344 134.111 13.1011C134.178 13.2744 134.278 13.4344 134.411 13.5811C134.544 13.7277 134.678 13.8544 134.811 13.9611C135.144 14.2011 135.484 14.4611 135.831 14.7411C136.191 15.0211 136.458 15.3611 136.631 15.7611C136.764 16.0411 136.831 16.3277 136.831 16.6211C136.831 17.0211 136.731 17.3877 136.531 17.7211C136.331 18.0411 136.104 18.2944 135.851 18.4811C136.291 18.2944 136.718 17.9677 137.131 17.5011C137.558 17.0211 137.924 16.5477 138.231 16.0811C138.431 15.7744 138.611 15.4877 138.771 15.2211C138.944 14.9411 139.118 14.6344 139.291 14.3011C139.344 14.2077 139.391 14.1611 139.431 14.1611C139.511 14.1611 139.551 14.2744 139.551 14.5011C139.551 14.5944 139.531 14.7077 139.491 14.8411C139.464 14.9744 139.418 15.1077 139.351 15.2411C139.111 15.6411 138.884 16.0144 138.671 16.3611C138.458 16.6944 138.198 17.0611 137.891 17.4611C137.278 18.2744 136.624 18.8544 135.931 19.2011C135.238 19.5344 134.418 19.7011 133.471 19.7011ZM139.63 19.4211C139.256 19.4211 138.976 19.2877 138.79 19.0211C138.603 18.7411 138.51 18.3677 138.51 17.9011C138.51 17.8344 138.51 17.7677 138.51 17.7011C138.51 17.6344 138.516 17.5677 138.53 17.5011C138.596 16.9944 138.71 16.4211 138.87 15.7811C139.043 15.1411 139.243 14.4677 139.47 13.7611C139.603 13.3611 139.77 12.8611 139.97 12.2611C140.183 11.6477 140.43 10.9944 140.71 10.3011C140.99 9.59439 141.296 8.89439 141.63 8.20106C141.976 7.50772 142.356 6.88105 142.77 6.32105C143.183 5.74772 143.616 5.28772 144.07 4.94105C144.536 4.59439 145.03 4.42106 145.55 4.42106C145.976 4.42106 146.27 4.52772 146.43 4.74106C146.59 4.94105 146.67 5.18105 146.67 5.46106C146.67 5.75439 146.616 6.05439 146.51 6.36106C146.403 6.65439 146.296 6.90106 146.19 7.10106C145.95 7.58106 145.636 8.12106 145.25 8.72106C144.863 9.32106 144.456 9.88106 144.03 10.4011C143.776 10.7344 143.463 11.1077 143.09 11.5211C142.716 11.9344 142.363 12.3144 142.03 12.6611C141.71 13.0077 141.476 13.2477 141.33 13.3811L141.01 14.3011C140.916 14.5544 140.823 14.8544 140.73 15.2011C140.65 15.5477 140.576 15.8944 140.51 16.2411C140.456 16.5744 140.41 16.8677 140.37 17.1211C140.356 17.1744 140.35 17.2277 140.35 17.2811C140.35 17.3344 140.35 17.3811 140.35 17.4211C140.35 17.8211 140.503 18.0211 140.81 18.0211C140.996 18.0211 141.23 17.9344 141.51 17.7611C141.776 17.6011 142.03 17.3944 142.27 17.1411C142.523 16.8744 142.703 16.6744 142.81 16.5411C143.076 16.1944 143.33 15.8277 143.57 15.4411C143.81 15.0411 144.016 14.6744 144.19 14.3411C144.256 14.2344 144.303 14.1811 144.33 14.1811C144.41 14.1811 144.45 14.2944 144.45 14.5211C144.45 14.6277 144.43 14.7544 144.39 14.9011C144.363 15.0344 144.316 15.1611 144.25 15.2811C144.063 15.6011 143.843 15.9544 143.59 16.3411C143.336 16.7277 143.076 17.1011 142.81 17.4611C142.61 17.7277 142.33 18.0144 141.97 18.3211C141.61 18.6277 141.223 18.8877 140.81 19.1011C140.396 19.3144 140.003 19.4211 139.63 19.4211ZM141.73 12.2411C142.396 11.4544 143.07 10.6144 143.75 9.72106C144.443 8.81439 145.016 7.89439 145.47 6.96106C145.496 6.89439 145.556 6.76106 145.65 6.56106C145.743 6.36106 145.83 6.14106 145.91 5.90106C145.99 5.64772 146.03 5.43439 146.03 5.26106C146.03 5.03439 145.943 4.92106 145.77 4.92106H145.63C145.456 4.92106 145.25 5.04106 145.01 5.28106C144.783 5.52106 144.55 5.84106 144.31 6.24105C144.003 6.74772 143.703 7.33439 143.41 8.00106C143.116 8.65439 142.83 9.34772 142.55 10.0811C142.27 10.8144 141.996 11.5344 141.73 12.2411ZM149.611 19.4211C149.198 19.4211 148.911 19.2611 148.751 18.9411C148.604 18.6211 148.531 18.2277 148.531 17.7611C148.531 17.3344 148.571 16.9144 148.651 16.5011C148.691 16.3144 148.731 16.1277 148.771 15.9411C148.824 15.7411 148.884 15.5344 148.951 15.3211C148.724 15.7344 148.484 16.1344 148.231 16.5211C147.991 16.9077 147.744 17.2477 147.491 17.5411C147.064 18.0611 146.611 18.4944 146.131 18.8411C145.664 19.1877 145.198 19.3611 144.731 19.3611C144.358 19.3611 144.038 19.2277 143.771 18.9611C143.518 18.6811 143.391 18.2011 143.391 17.5211C143.391 16.8277 143.511 16.1144 143.751 15.3811C143.991 14.6477 144.324 13.9677 144.751 13.3411C145.191 12.7011 145.704 12.1877 146.291 11.8011C146.891 11.4144 147.544 11.2211 148.251 11.2211C148.478 11.2211 148.724 11.2544 148.991 11.3211C149.258 11.3877 149.504 11.5144 149.731 11.7011C149.958 11.8744 150.111 12.1211 150.191 12.4411C150.204 12.4144 150.218 12.3944 150.231 12.3811C150.258 12.3677 150.278 12.3544 150.291 12.3411C150.478 12.0477 150.691 11.8011 150.931 11.6011C151.171 11.4011 151.438 11.3011 151.731 11.3011C151.878 11.3011 152.084 11.3077 152.351 11.3211C152.618 11.3344 152.811 11.3344 152.931 11.3211C152.864 11.3744 152.771 11.4811 152.651 11.6411C152.544 11.8011 152.444 11.9677 152.351 12.1411C152.258 12.3011 152.184 12.4277 152.131 12.5211C151.771 13.2144 151.444 13.9011 151.151 14.5811C150.858 15.2611 150.631 15.9144 150.471 16.5411C150.431 16.6744 150.404 16.8011 150.391 16.9211C150.378 17.0277 150.371 17.1344 150.371 17.2411C150.371 17.5877 150.484 17.7611 150.711 17.7611C150.924 17.7611 151.191 17.6277 151.511 17.3611C151.978 16.9877 152.384 16.5211 152.731 15.9611C153.091 15.4011 153.404 14.8611 153.671 14.3411C153.724 14.2477 153.771 14.2011 153.811 14.2011C153.891 14.2011 153.931 14.3144 153.931 14.5411C153.931 14.6477 153.911 14.7677 153.871 14.9011C153.844 15.0344 153.798 15.1611 153.731 15.2811C153.544 15.6011 153.298 15.9944 152.991 16.4611C152.698 16.9277 152.364 17.3877 151.991 17.8411C151.618 18.2811 151.224 18.6544 150.811 18.9611C150.411 19.2677 150.011 19.4211 149.611 19.4211ZM145.631 17.6811C145.671 17.6944 145.731 17.7011 145.811 17.7011C146.064 17.7011 146.338 17.5944 146.631 17.3811C146.924 17.1677 147.218 16.8944 147.511 16.5611C147.804 16.2144 148.064 15.8677 148.291 15.5211C148.878 14.5877 149.311 13.8877 149.591 13.4211C149.871 12.9544 150.031 12.6877 150.071 12.6211C150.004 12.3944 149.884 12.2277 149.711 12.1211C149.551 12.0144 149.358 11.9611 149.131 11.9611C148.838 11.9611 148.524 12.0411 148.191 12.2011C147.871 12.3611 147.598 12.5544 147.371 12.7811C147.024 13.1277 146.691 13.5744 146.371 14.1211C146.064 14.6677 145.811 15.2077 145.611 15.7411C145.424 16.2744 145.331 16.7211 145.331 17.0811C145.331 17.4144 145.431 17.6144 145.631 17.6811ZM158.284 19.4211C157.831 19.4211 157.518 19.2877 157.344 19.0211C157.184 18.7411 157.104 18.4211 157.104 18.0611C157.104 17.6211 157.191 17.0944 157.364 16.4811C157.538 15.8544 157.738 15.2277 157.964 14.6011C158.204 13.9611 158.418 13.3944 158.604 12.9011C158.658 12.7811 158.684 12.6544 158.684 12.5211C158.684 12.3744 158.638 12.2677 158.544 12.2011C158.451 12.1344 158.331 12.1011 158.184 12.1011C157.971 12.1011 157.731 12.1677 157.464 12.3011C157.051 12.5144 156.658 12.8544 156.284 13.3211C155.911 13.7877 155.611 14.2744 155.384 14.7811C155.131 15.3544 154.904 15.9277 154.704 16.5011C154.504 17.0744 154.344 17.5411 154.224 17.9011C154.144 18.1277 154.071 18.3611 154.004 18.6011C153.938 18.8411 153.871 19.0744 153.804 19.3011H151.864C151.864 19.3011 151.911 19.1344 152.004 18.8011C152.084 18.4677 152.191 18.1344 152.324 17.8011C152.551 17.2144 152.778 16.6277 153.004 16.0411C153.244 15.4544 153.451 14.9344 153.624 14.4811C153.678 14.3477 153.758 14.1011 153.864 13.7411C153.984 13.3677 154.091 12.9811 154.184 12.5811C154.291 12.1811 154.344 11.8544 154.344 11.6011C154.344 11.4544 154.324 11.3544 154.284 11.3011C154.404 11.3011 154.538 11.3011 154.684 11.3011C154.844 11.2877 154.991 11.2811 155.124 11.2811C155.311 11.2811 155.484 11.2877 155.644 11.3011C155.818 11.3144 155.931 11.3477 155.984 11.4011C156.144 11.5211 156.224 11.6944 156.224 11.9211C156.224 12.0811 156.191 12.2411 156.124 12.4011C156.071 12.5611 156.031 12.6944 156.004 12.8011C156.191 12.6277 156.384 12.4611 156.584 12.3011C156.784 12.1411 157.091 11.9344 157.504 11.6811C157.744 11.5344 158.044 11.4144 158.404 11.3211C158.764 11.2277 159.091 11.1811 159.384 11.1811C160.144 11.1811 160.524 11.5344 160.524 12.2411C160.524 12.3611 160.511 12.4944 160.484 12.6411C160.471 12.7877 160.431 12.9477 160.364 13.1211C160.298 13.3344 160.191 13.6277 160.044 14.0011C159.898 14.3744 159.744 14.7744 159.584 15.2011C159.438 15.6144 159.311 16.0077 159.204 16.3811C159.098 16.7544 159.044 17.0544 159.044 17.2811C159.044 17.6011 159.164 17.7611 159.404 17.7611C159.618 17.7611 159.884 17.6277 160.204 17.3611C160.511 17.1077 160.778 16.8344 161.004 16.5411C161.284 16.1944 161.538 15.8277 161.764 15.4411C162.004 15.0411 162.211 14.6744 162.384 14.3411C162.451 14.2344 162.498 14.1811 162.524 14.1811C162.604 14.1811 162.644 14.2944 162.644 14.5211C162.644 14.6277 162.624 14.7544 162.584 14.9011C162.558 15.0344 162.511 15.1611 162.444 15.2811C162.258 15.6011 162.038 15.9544 161.784 16.3411C161.531 16.7277 161.271 17.1011 161.004 17.4611C160.818 17.7144 160.571 17.9944 160.264 18.3011C159.958 18.6077 159.631 18.8744 159.284 19.1011C158.938 19.3144 158.604 19.4211 158.284 19.4211ZM167.835 19.4211C167.435 19.4211 167.155 19.2744 166.995 18.9811C166.849 18.6744 166.775 18.2944 166.775 17.8411C166.775 17.6277 166.789 17.4144 166.815 17.2011C166.842 16.9744 166.875 16.7477 166.915 16.5211C166.942 16.3211 166.995 16.0811 167.075 15.8011C167.155 15.5077 167.249 15.1944 167.355 14.8611C167.102 15.3677 166.809 15.8877 166.475 16.4211C166.142 16.9411 165.775 17.4277 165.375 17.8811C164.989 18.3211 164.582 18.6811 164.155 18.9611C163.742 19.2277 163.322 19.3611 162.895 19.3611C162.522 19.3611 162.202 19.2277 161.935 18.9611C161.682 18.6811 161.555 18.2011 161.555 17.5211C161.555 16.8277 161.675 16.1144 161.915 15.3811C162.155 14.6477 162.489 13.9677 162.915 13.3411C163.355 12.7011 163.869 12.1877 164.455 11.8011C165.055 11.4144 165.709 11.2211 166.415 11.2211C166.709 11.2211 167.035 11.2811 167.395 11.4011C167.755 11.5211 168.029 11.7544 168.215 12.1011C168.282 11.9944 168.335 11.8877 168.375 11.7811C168.415 11.6744 168.455 11.5811 168.495 11.5011C168.815 10.7944 169.089 10.1277 169.315 9.50106C169.542 8.87439 169.742 8.38772 169.915 8.04106C170.142 7.58772 170.322 7.24772 170.455 7.02106C170.589 6.78106 170.709 6.61439 170.815 6.52105C170.935 6.42772 171.069 6.36106 171.215 6.32105C171.335 6.29439 171.469 6.27439 171.615 6.26106C171.762 6.24772 171.915 6.24105 172.075 6.24105C172.235 6.24105 172.415 6.24105 172.615 6.24105C172.829 6.24105 172.962 6.23439 173.015 6.22106C172.789 6.38106 172.522 6.70772 172.215 7.20106C171.909 7.69439 171.589 8.28772 171.255 8.98106C170.922 9.67439 170.595 10.4144 170.275 11.2011C169.969 11.9744 169.682 12.7477 169.415 13.5211C169.162 14.2811 168.955 14.9744 168.795 15.6011C168.649 16.2277 168.575 16.7344 168.575 17.1211C168.575 17.5477 168.695 17.7611 168.935 17.7611C169.095 17.7611 169.282 17.6811 169.495 17.5211C169.722 17.3611 169.929 17.1811 170.115 16.9811C170.302 16.7811 170.435 16.6344 170.515 16.5411C170.782 16.1944 171.035 15.8277 171.275 15.4411C171.515 15.0411 171.722 14.6677 171.895 14.3211C171.962 14.2144 172.009 14.1611 172.035 14.1611C172.129 14.1611 172.175 14.2811 172.175 14.5211C172.175 14.7744 172.109 15.0144 171.975 15.2411C171.789 15.5611 171.562 15.9211 171.295 16.3211C171.042 16.7077 170.782 17.0877 170.515 17.4611C170.329 17.7011 170.082 17.9744 169.775 18.2811C169.482 18.5877 169.162 18.8544 168.815 19.0811C168.482 19.3077 168.155 19.4211 167.835 19.4211ZM163.795 17.6811C163.835 17.6944 163.895 17.7011 163.975 17.7011C164.349 17.7011 164.782 17.4544 165.275 16.9611C165.782 16.4544 166.289 15.7944 166.795 14.9811C166.902 14.8211 167.029 14.5944 167.175 14.3011C167.322 14.0077 167.475 13.6877 167.635 13.3411C167.809 12.9811 167.969 12.6477 168.115 12.3411C168.022 12.2077 167.902 12.1144 167.755 12.0611C167.622 12.0077 167.475 11.9811 167.315 11.9811C167.022 11.9811 166.709 12.0611 166.375 12.2211C166.042 12.3677 165.762 12.5544 165.535 12.7811C165.189 13.1277 164.855 13.5744 164.535 14.1211C164.229 14.6677 163.975 15.2077 163.775 15.7411C163.589 16.2744 163.495 16.7211 163.495 17.0811C163.495 17.4144 163.595 17.6144 163.795 17.6811Z" fill="white"/>
</svg>
