<svg width="45" height="26" viewBox="0 0 45 26" fill="none" xmlns="http://www.w3.org/2000/svg">
<g id="Group 2">
<path id="Vector 2" d="M9.13928 14.8892C8.23141 14.7681 0.302625 12.5287 0 8.89722V14.4655C1.2105 17.3102 5.56831 19.247 9.13928 20.0944V14.8892Z" fill="white"/>
<path id="Vector 1" d="M21.0627 0C-0.968409 1.27103 -1.57365 7.44458 1.33155 9.98664C14.9497 1.39208 39.7044 5.99198 43.0938 10.1077C45.3938 9.38138 48.7227 0.605251 21.0627 0Z" fill="white"/>
<path id="Line 1" d="M9.74451 15.3733L9.74451 16.7654C10.4103 17.2496 10.3498 18.097 9.74451 18.5206L9.74451 19.6706C10.4379 19.5368 10.7681 19.3086 11.2576 18.6417L13.3155 19.2469C13.6181 20.0943 14.1023 20.639 15.1918 20.9417C15.0102 20.518 14.9497 20.1548 15.0102 19.6706C14.4049 19.2469 14.4049 18.3391 15.0102 17.9154C15.0102 17.4312 15.0707 17.1286 15.2523 16.5838C14.3075 16.9945 13.8661 17.314 13.4365 18.0364L11.4392 17.4312C11.2318 16.4364 10.8695 15.9818 9.74451 15.3733Z" fill="white"/>
<path id="Vector 3" d="M35.4072 14.8892C36.315 14.7681 44.2438 12.5287 44.5464 8.89722V14.4655C43.3359 17.3102 38.9781 19.247 35.4072 20.0944V14.8892Z" fill="white"/>
<path id="Line 2" d="M34.8019 15.3733L34.8019 16.7654C34.1362 17.2496 34.1967 18.097 34.8019 18.5206L34.8019 19.6706C34.1085 19.5368 33.7784 19.3086 33.2888 18.6417L31.231 19.2469C30.9283 20.0943 30.4441 20.639 29.3547 20.9417C29.5363 20.518 29.5968 20.1548 29.5363 19.6706C30.1415 19.2469 30.1415 18.3391 29.5363 17.9154C29.5363 17.4312 29.4757 17.1286 29.2942 16.5838C30.2389 16.9945 30.6804 17.314 31.1099 18.0364L33.1072 17.4312C33.3147 16.4364 33.677 15.9818 34.8019 15.3733Z" fill="white"/>
<path id="Subtract" fill-rule="evenodd" clip-rule="evenodd" d="M22.2732 25.602C26.017 25.602 29.052 22.5671 29.052 18.8232C29.052 15.0794 26.017 12.0444 22.2732 12.0444C18.5294 12.0444 15.4944 15.0794 15.4944 18.8232C15.4944 22.5671 18.5294 25.602 22.2732 25.602ZM18.4139 18.7839C18.2572 16.7992 19.9977 14.9049 22.2732 14.9049C22.5494 14.9049 22.7732 14.6811 22.7732 14.4049C22.7732 14.1288 22.5494 13.9049 22.2732 13.9049C19.4647 13.9049 17.2105 16.2474 17.417 18.8626C17.4387 19.1379 17.6795 19.3434 17.9548 19.3217C18.2301 19.3 18.4356 19.0592 18.4139 18.7839Z" fill="white"/>
</g>
</svg>
