<svg width="13" height="16" viewBox="0 0 13 16" fill="none" xmlns="http://www.w3.org/2000/svg">
<path id="Star 1" d="M5.41866 1.79616C5.6421 0.598474 7.3579 0.598473 7.58134 1.79616L7.95636 3.80631C8.08017 4.46995 8.76703 4.86651 9.40367 4.64191L11.332 3.96161C12.481 3.55627 13.3389 5.0422 12.4134 5.83455L10.86 7.1644C10.3472 7.60344 10.3472 8.39656 10.86 8.8356L12.4134 10.1655C13.3389 10.9578 12.481 12.4437 11.332 12.0384L9.40366 11.3581C8.76703 11.1335 8.08017 11.5301 7.95636 12.1937L7.58134 14.2038C7.3579 15.4015 5.6421 15.4015 5.41866 14.2038L5.04364 12.1937C4.91983 11.5301 4.23297 11.1335 3.59633 11.3581L1.66799 12.0384C0.519042 12.4437 -0.338859 10.9578 0.586644 10.1655L2.13998 8.8356C2.6528 8.39656 2.6528 7.60344 2.13998 7.1644L0.586645 5.83455C-0.338858 5.0422 0.519042 3.55627 1.66799 3.96161L3.59634 4.64191C4.23297 4.86651 4.91983 4.46995 5.04364 3.80631L5.41866 1.79616Z" fill="#4A36EC"/>
</svg>
